HIERARCHY
ROOT Hips
{
	OFFSET 0.000000 87.230942 0.000000
	CHANNELS 6 Xposition Yposition Zposition Xrotation Yrotation Zrotation
	JOINT Pelvis
	{
		OFFSET 0.000000 0.000000 0.000000
		CHANNELS 3 Xrotation Yrotation Zrotation
		JOINT LeftUpLeg
		{
			OFFSET 12.017000 -9.376404 -2.439400
			CHANNELS 3 Xrotation Yrotation Zrotation
			JOINT LeftLeg
			{
				OFFSET -0.007312 -32.846973 2.110600
				CHANNELS 3 Xrotation Yrotation Zrotation
				JOINT LeftFoot
				{
					OFFSET 0.007312 -32.065170 -0.570400
					CHANNELS 3 Xrotation Yrotation Zrotation
					JOINT LeftToeBase
					{
						OFFSET 0.728300 -11.045900 13.180700
						CHANNELS 3 Xrotation Yrotation Zrotation
						End Site
						{
							OFFSET 0.000000 17.212589 0.000000
						}
					}
				}
				JOINT LeftPantLeg
				{
					OFFSET 0.002788 -16.709013 -3.143600
					CHANNELS 3 Xrotation Yrotation Zrotation
					End Site
					{
						OFFSET -0.605125 24.528742 0.000000
					}
				}
			}
			JOINT Left_Butt
			{
				OFFSET -6.630234 1.326584 -3.183700
				CHANNELS 3 Xrotation Yrotation Zrotation
				End Site
				{
					OFFSET -0.498041 20.188049 0.000000
				}
			}
		}
		JOINT RightUpLeg
		{
			OFFSET -11.717000 -9.376404 -2.439400
			CHANNELS 3 Xrotation Yrotation Zrotation
			JOINT RightLeg
			{
				OFFSET -0.003241 -32.846912 2.110600
				CHANNELS 3 Xrotation Yrotation Zrotation
				JOINT RightFoot
				{
					OFFSET 0.003241 -32.065136 -0.570500
					CHANNELS 3 Xrotation Yrotation Zrotation
					JOINT RightToeBase
					{
						OFFSET -0.728300 -11.045901 13.180700
						CHANNELS 3 Xrotation Yrotation Zrotation
						End Site
						{
							OFFSET 0.000000 17.212593 0.000000
						}
					}
				}
				JOINT RightPantLeg
				{
					OFFSET 0.008142 -16.708982 -3.143700
					CHANNELS 3 Xrotation Yrotation Zrotation
					End Site
					{
						OFFSET 0.605088 24.528715 0.000000
					}
				}
			}
			JOINT Right_Butt
			{
				OFFSET 6.630732 1.326584 -3.183700
				CHANNELS 3 Xrotation Yrotation Zrotation
				End Site
				{
					OFFSET 0.498015 20.188240 0.000000
				}
			}
		}
	}
	JOINT Spine
	{
		OFFSET -0.062400 7.848404 3.918300
		CHANNELS 3 Xrotation Yrotation Zrotation
		JOINT Spine1
		{
			OFFSET -0.072800 11.422302 0.713400
			CHANNELS 3 Xrotation Yrotation Zrotation
			JOINT Spine2
			{
				OFFSET -0.083200 13.054001 -1.931600
				CHANNELS 3 Xrotation Yrotation Zrotation
				JOINT Neck
				{
					OFFSET -0.092200 14.121796 -5.138800
					CHANNELS 3 Xrotation Yrotation Zrotation
					JOINT Head
					{
						OFFSET 0.000200 10.447403 -0.842000
						CHANNELS 3 Xrotation Yrotation Zrotation
						JOINT Visor
						{
							OFFSET 0.457100 25.671204 16.550400
							CHANNELS 3 Xrotation Yrotation Zrotation
							End Site
							{
								OFFSET 0.000000 26.061493 0.000000
							}
						}
						JOINT HairMidA
						{
							OFFSET 0.459400 31.585403 8.437400
							CHANNELS 3 Xrotation Yrotation Zrotation
							End Site
							{
								OFFSET 0.000000 26.061493 0.000000
							}
						}
						JOINT HairMidB
						{
							OFFSET 0.464000 33.309204 -8.389700
							CHANNELS 3 Xrotation Yrotation Zrotation
							End Site
							{
								OFFSET 0.000000 26.061493 0.000000
							}
						}
						JOINT HairMidC
						{
							OFFSET 0.466600 27.991196 -17.375099
							CHANNELS 3 Xrotation Yrotation Zrotation
							End Site
							{
								OFFSET 0.000000 26.061493 0.000000
							}
						}
						JOINT HairMidD
						{
							OFFSET 0.467700 17.888092 -21.169500
							CHANNELS 3 Xrotation Yrotation Zrotation
							End Site
							{
								OFFSET 0.000000 26.061493 0.000000
							}
						}
						JOINT HairMidE
						{
							OFFSET 5.325700 3.514603 -14.369699
							CHANNELS 3 Xrotation Yrotation Zrotation
							End Site
							{
								OFFSET 0.000000 26.061493 0.000000
							}
						}
						JOINT HairMidF
						{
							OFFSET -4.394100 3.514603 -14.372400
							CHANNELS 3 Xrotation Yrotation Zrotation
							End Site
							{
								OFFSET 0.000000 26.061493 0.000000
							}
						}
						JOINT HairLeftA
						{
							OFFSET 15.319900 25.746506 2.623300
							CHANNELS 3 Xrotation Yrotation Zrotation
							End Site
							{
								OFFSET 0.000000 26.061493 0.000000
							}
						}
						JOINT HairLeftB
						{
							OFFSET 12.619500 29.289398 -8.731499
							CHANNELS 3 Xrotation Yrotation Zrotation
							End Site
							{
								OFFSET 0.000000 26.061493 0.000000
							}
						}
						JOINT HairLeftC
						{
							OFFSET 15.714800 15.959900 2.909800
							CHANNELS 3 Xrotation Yrotation Zrotation
							End Site
							{
								OFFSET 0.000000 26.061493 0.000000
							}
						}
						JOINT HairLeftD
						{
							OFFSET 16.101700 18.437408 -7.553200
							CHANNELS 3 Xrotation Yrotation Zrotation
							End Site
							{
								OFFSET 0.000000 26.061493 0.000000
							}
						}
						JOINT HairLeftE
						{
							OFFSET 9.731900 17.915009 -18.316799
							CHANNELS 3 Xrotation Yrotation Zrotation
							End Site
							{
								OFFSET 0.000000 26.061493 0.000000
							}
						}
						JOINT HairLeftF
						{
							OFFSET 11.204300 4.953598 -9.668100
							CHANNELS 3 Xrotation Yrotation Zrotation
							End Site
							{
								OFFSET 0.000000 26.061493 0.000000
							}
						}
						JOINT HairRightA
						{
							OFFSET -14.397900 25.746307 2.615100
							CHANNELS 3 Xrotation Yrotation Zrotation
							End Site
							{
								OFFSET 0.000000 26.061493 0.000000
							}
						}
						JOINT HairRightB
						{
							OFFSET -11.691200 29.289200 -8.738199
							CHANNELS 3 Xrotation Yrotation Zrotation
							End Site
							{
								OFFSET 0.000000 26.061493 0.000000
							}
						}
						JOINT HairRightC
						{
							OFFSET -14.792900 15.959702 2.901400
							CHANNELS 3 Xrotation Yrotation Zrotation
							End Site
							{
								OFFSET 0.000000 26.061493 0.000000
							}
						}
						JOINT HairRightD
						{
							OFFSET -15.174000 18.437195 -7.561900
							CHANNELS 3 Xrotation Yrotation Zrotation
							End Site
							{
								OFFSET 0.000000 26.061493 0.000000
							}
						}
						JOINT HairRightE
						{
							OFFSET -8.798200 17.914902 -18.322001
							CHANNELS 3 Xrotation Yrotation Zrotation
							End Site
							{
								OFFSET 0.000000 26.061493 0.000000
							}
						}
						JOINT HairRightF
						{
							OFFSET -10.275200 4.953506 -9.674099
							CHANNELS 3 Xrotation Yrotation Zrotation
							End Site
							{
								OFFSET 0.000000 26.061493 0.000000
							}
						}
					}
				}
				JOINT LeftShoulder
				{
					OFFSET 5.133500 7.341202 -1.867600
					CHANNELS 3 Xrotation Yrotation Zrotation
					JOINT LeftArm
					{
						OFFSET 8.072663 0.936867 -2.176600
						CHANNELS 3 Xrotation Yrotation Zrotation
						JOINT LeftForeArm
						{
							OFFSET 31.271999 0.000000 0.000000
							CHANNELS 3 Xrotation Yrotation Zrotation
							JOINT LeftHand
							{
								OFFSET 31.771030 0.000000 0.000000
								CHANNELS 3 Xrotation Yrotation Zrotation
								JOINT LeftHandThumb1
								{
									OFFSET 2.886520 -2.557846 4.416640
									CHANNELS 3 Xrotation Yrotation Zrotation
									JOINT LeftHandThumb2
									{
										OFFSET 2.371025 -1.368912 1.368911
										CHANNELS 3 Xrotation Yrotation Zrotation
										JOINT LeftHandThumb3
										{
											OFFSET 2.243378 -1.295212 1.295213
											CHANNELS 3 Xrotation Yrotation Zrotation
											End Site
											{
												OFFSET -0.332611 2.876945 0.020015
											}
										}
									}
								}
								JOINT LeftHandIndex1
								{
									OFFSET 8.568985 -0.641945 3.119977
									CHANNELS 3 Xrotation Yrotation Zrotation
									JOINT LeftHandIndex2
									{
										OFFSET 3.348503 0.000000 0.000000
										CHANNELS 3 Xrotation Yrotation Zrotation
										JOINT LeftHandIndex3
										{
											OFFSET 3.314552 0.000000 0.000000
											CHANNELS 3 Xrotation Yrotation Zrotation
											End Site
											{
												OFFSET -1.032898 3.075485 0.678796
											}
										}
									}
								}
								JOINT LeftHandMiddle1
								{
									OFFSET 8.124603 0.000000 0.000000
									CHANNELS 3 Xrotation Yrotation Zrotation
									JOINT LeftHandMiddle2
									{
										OFFSET 4.166275 0.000000 0.000000
										CHANNELS 3 Xrotation Yrotation Zrotation
										JOINT LeftHandMiddle3
										{
											OFFSET 3.018135 0.000000 0.000000
											CHANNELS 3 Xrotation Yrotation Zrotation
											End Site
											{
												OFFSET -1.032700 2.767982 0.617226
											}
										}
									}
								}
								JOINT LeftHandRing1
								{
									OFFSET 8.571686 -0.031357 -2.884048
									CHANNELS 3 Xrotation Yrotation Zrotation
									JOINT LeftHandRing2
									{
										OFFSET 3.671181 0.000000 0.000000
										CHANNELS 3 Xrotation Yrotation Zrotation
										JOINT LeftHandRing3
										{
											OFFSET 2.728851 0.000000 0.000000
											CHANNELS 3 Xrotation Yrotation Zrotation
											End Site
											{
												OFFSET -0.815796 2.539223 0.577389
											}
										}
									}
								}
								JOINT LeftHandPinky1
								{
									OFFSET 7.854515 -0.675232 -5.213020
									CHANNELS 3 Xrotation Yrotation Zrotation
									JOINT LeftHandPinky2
									{
										OFFSET 3.068596 0.000000 0.000000
										CHANNELS 3 Xrotation Yrotation Zrotation
										JOINT LeftHandPinky3
										{
											OFFSET 2.396042 0.000000 0.000000
											CHANNELS 3 Xrotation Yrotation Zrotation
											End Site
											{
												OFFSET -0.524597 2.267998 0.567429
											}
										}
									}
								}
							}
							JOINT LeftSleeve
							{
								OFFSET 19.684509 -0.200119 0.476146
								CHANNELS 3 Xrotation Yrotation Zrotation
								End Site
								{
									OFFSET -0.031017 25.731133 -0.002868
								}
							}
						}
					}
				}
				JOINT RightShoulder
				{
					OFFSET -4.395900 7.341202 -1.870200
					CHANNELS 3 Xrotation Yrotation Zrotation
					JOINT RightArm
					{
						OFFSET -8.071453 0.936867 -2.181100
						CHANNELS 3 Xrotation Yrotation Zrotation
						JOINT RightForeArm
						{
							OFFSET -31.272011 0.000000 0.000000
							CHANNELS 3 Xrotation Yrotation Zrotation
							JOINT RightHand
							{
								OFFSET -31.771019 0.000000 0.000000
								CHANNELS 3 Xrotation Yrotation Zrotation
								JOINT RightHandThumb1
								{
									OFFSET -2.886520 -2.557808 4.416626
									CHANNELS 3 Xrotation Yrotation Zrotation
									JOINT RightHandThumb2
									{
										OFFSET -2.371056 -1.368927 1.368928
										CHANNELS 3 Xrotation Yrotation Zrotation
										JOINT RightHandThumb3
										{
											OFFSET -2.243362 -1.295204 1.295206
											CHANNELS 3 Xrotation Yrotation Zrotation
											End Site
											{
												OFFSET 0.332642 2.876938 0.020047
											}
										}
									}
								}
								JOINT RightHandIndex1
								{
									OFFSET -8.568993 -0.641953 3.120017
									CHANNELS 3 Xrotation Yrotation Zrotation
									JOINT RightHandIndex2
									{
										OFFSET -3.348518 0.000000 0.000000
										CHANNELS 3 Xrotation Yrotation Zrotation
										JOINT RightHandIndex3
										{
											OFFSET -3.314552 0.000000 0.000000
											CHANNELS 3 Xrotation Yrotation Zrotation
											End Site
											{
												OFFSET 1.032898 3.075478 0.678804
											}
										}
									}
								}
								JOINT RightHandMiddle1
								{
									OFFSET -8.124588 0.000000 0.000000
									CHANNELS 3 Xrotation Yrotation Zrotation
									JOINT RightHandMiddle2
									{
										OFFSET -4.166275 0.000000 0.000000
										CHANNELS 3 Xrotation Yrotation Zrotation
										JOINT RightHandMiddle3
										{
											OFFSET -3.018097 0.000000 0.000000
											CHANNELS 3 Xrotation Yrotation Zrotation
											End Site
											{
												OFFSET 1.032700 2.767937 0.617197
											}
										}
									}
								}
								JOINT RightHandRing1
								{
									OFFSET -8.571747 -0.031349 -2.884061
									CHANNELS 3 Xrotation Yrotation Zrotation
									JOINT RightHandRing2
									{
										OFFSET -3.671204 0.000000 0.000000
										CHANNELS 3 Xrotation Yrotation Zrotation
										JOINT RightHandRing3
										{
											OFFSET -2.728874 0.000000 0.000000
											CHANNELS 3 Xrotation Yrotation Zrotation
											End Site
											{
												OFFSET 0.815804 2.539261 0.577413
											}
										}
									}
								}
								JOINT RightHandPinky1
								{
									OFFSET -7.854561 -0.675247 -5.212970
									CHANNELS 3 Xrotation Yrotation Zrotation
									JOINT RightHandPinky2
									{
										OFFSET -3.068550 0.000000 0.000000
										CHANNELS 3 Xrotation Yrotation Zrotation
										JOINT RightHandPinky3
										{
											OFFSET -2.395981 0.000000 0.000000
											CHANNELS 3 Xrotation Yrotation Zrotation
											End Site
											{
												OFFSET 0.524605 2.267952 0.567413
											}
										}
									}
								}
							}
							JOINT RightSleeve
							{
								OFFSET -19.684753 -0.200165 0.476065
								CHANNELS 3 Xrotation Yrotation Zrotation
								End Site
								{
									OFFSET 0.031342 25.731255 -0.002917
								}
							}
						}
					}
				}
				JOINT Hood
				{
					OFFSET 0.369700 14.447800 -5.317800
					CHANNELS 3 Xrotation Yrotation Zrotation
					JOINT Hood1
					{
						OFFSET 0.001700 -5.553802 -5.895100
						CHANNELS 3 Xrotation Yrotation Zrotation
						JOINT Hood2
						{
							OFFSET -0.000200 -8.380501 0.763600
							CHANNELS 3 Xrotation Yrotation Zrotation
							End Site
							{
								OFFSET 0.000000 8.415215 0.000000
							}
						}
					}
				}
				JOINT Left_Breast
				{
					OFFSET 5.682500 3.120102 3.188800
					CHANNELS 3 Xrotation Yrotation Zrotation
					End Site
					{
						OFFSET 0.000000 10.528564 0.000000
					}
				}
				JOINT Right_Breast
				{
					OFFSET -4.947600 3.120102 3.185900
					CHANNELS 3 Xrotation Yrotation Zrotation
					End Site
					{
						OFFSET 0.000000 10.528564 0.000000
					}
				}
				JOINT Whistle
				{
					OFFSET 0.368200 11.471298 0.095400
					CHANNELS 3 Xrotation Yrotation Zrotation
					JOINT Whistle1
					{
						OFFSET -0.002000 -6.349899 7.479800
						CHANNELS 3 Xrotation Yrotation Zrotation
						JOINT Whistle2
						{
							OFFSET -0.001300 -8.217598 4.717600
							CHANNELS 3 Xrotation Yrotation Zrotation
							End Site
							{
								OFFSET 0.000000 9.475479 0.000000
							}
						}
					}
				}
			}
		}
		JOINT Belly
		{
			OFFSET 0.212400 1.593002 3.163700
			CHANNELS 3 Xrotation Yrotation Zrotation
			End Site
			{
				OFFSET 0.000000 7.496635 0.000000
			}
		}
	}
	JOINT FitGrandmaFacialAnim_Joint
	{
		OFFSET 1.150000 -86.211197 -1.220100
		CHANNELS 3 Xrotation Yrotation Zrotation
		End Site
		{
			OFFSET 0.000000 31.666618 0.000000
		}
	}
}
MOTION
Frames: 4
Frame Time: 0.016667
0.262824 72.273819 3.074668 11.811827 2.987410 -1.293421 -0.000001 0.000000 -0.000000 -50.801742 2.217490 4.289406 76.957640 7.650448 -0.640997 -36.971083 5.946685 -5.506275 0.000000 0.000000 0.000000 0.000004 -0.000001 0.000000 0.000000 -0.000000 -0.000000 -47.219355 -15.541259 -4.683646 75.445805 -8.372811 -4.603712 -40.656995 -10.597780 4.611517 0.000000 -0.000001 0.000000 0.000003 0.000000 0.000000 0.000003 0.000001 0.000000 9.875337 1.450759 1.160790 7.603464 0.776395 0.053755 7.594516 0.865696 0.034386 -11.221130 -1.914914 7.441273 -27.443505 2.006291 -5.891918 0.000000 0.000000 -0.000000 0.000000 0.000000 -0.000000 0.000000 0.000000 -0.000000 0.000000 0.000000 -0.000000 0.000000 0.000000 -0.000000 0.000000 0.000000 -0.000000 0.000000 0.000000 -0.000000 0.000000 0.000000 -0.000000 0.000000 0.000000 -0.000000 0.000000 0.000000 -0.000000 0.000000 0.000000 -0.000000 0.000000 0.000000 -0.000000 0.000000 0.000000 -0.000000 0.000000 0.000000 -0.000000 0.000000 0.000000 -0.000000 0.000000 0.000000 -0.000000 0.000000 0.000000 -0.000000 0.000000 0.000000 -0.000000 0.000000 0.000000 -0.000000 3.557364 -26.212552 4.772373 -62.448727 -21.862966 -66.788233 -0.000017 -109.334328 -0.000015 0.750574 -5.137694 14.576880 -15.245199 10.163111 26.456295 3.939031 7.948717 0.746816 0.000000 -0.000000 0.000000 -0.000005 0.000004 -0.000005 0.000004 0.000020 -0.000074 0.000001 0.000001 -0.000001 -0.000007 -0.001918 0.015967 -0.000003 0.001943 -0.016050 -0.000003 -0.000000 0.000000 -0.000000 0.000003 -0.000009 -0.000001 0.000017 -0.000054 0.000001 -0.000001 0.000002 -0.018095 4.054256 0.511065 -0.018092 -4.054239 -0.511134 -0.000001 -0.000000 -0.000001 0.000002 -0.000001 0.000001 1.196392 13.130265 10.955149 -58.753239 43.561198 51.473754 -0.000050 106.323977 0.000046 3.436632 -3.949665 -38.593530 -6.948223 -5.049337 -29.743005 4.637189 -8.634139 -0.225399 -0.000002 -0.000004 -0.000001 -0.000009 -0.000001 0.000010 0.000001 -0.000003 0.000090 0.000000 0.000001 0.000001 -0.000010 0.000001 -0.000002 0.000015 -0.000009 0.000093 -0.000003 0.000000 -0.000002 -0.000007 0.000001 0.000008 0.000006 -0.000007 0.000074 -0.000000 -0.000001 -0.000001 -0.000014 0.000004 0.000010 0.000005 -0.000008 0.000071 -0.000001 -0.000002 0.000000 -0.000002 0.000000 0.000003 -0.000000 -0.000000 -0.000000 -0.000000 -0.000000 -0.000000 -0.000000 -0.000000 -0.000000 -0.000000 -0.000000 -0.000000 -0.000000 -0.000000 -0.000000 -0.000000 -0.000000 -0.000000 -0.000000 0.000000 0.000000 -0.000000 0.000000 0.000000 -0.000000 0.000000 0.000000 -0.000001 0.000000 -0.000000 
0.259827 72.272049 3.071774 11.799751 2.977413 -1.287227 -0.000001 0.000000 0.000000 -50.790315 2.217909 4.291372 76.962763 7.653558 -0.643671 -36.975554 5.949416 -5.511008 -0.000000 0.000000 -0.000000 0.000002 -0.000000 0.000001 -0.000002 0.000002 0.000000 -47.215527 -15.541488 -4.676782 75.453052 -8.372976 -4.616250 -40.657995 -10.600794 4.609778 -0.000000 -0.000001 0.000000 0.000001 -0.000000 0.000000 0.000004 0.000001 -0.000000 9.879010 1.445226 1.168158 7.606521 0.771335 0.057330 7.597686 0.860255 0.038071 -11.217812 -1.906714 7.417776 -27.445208 2.029513 -5.944888 0.000000 -0.000000 -0.000000 0.000000 -0.000000 -0.000000 0.000000 -0.000000 -0.000000 0.000000 -0.000000 -0.000000 0.000000 -0.000000 -0.000000 0.000000 -0.000000 -0.000000 0.000000 -0.000000 -0.000000 0.000000 -0.000000 -0.000000 0.000000 -0.000000 -0.000000 0.000000 -0.000000 -0.000000 0.000000 -0.000000 -0.000000 0.000000 -0.000000 -0.000000 0.000000 -0.000000 -0.000000 0.000000 -0.000000 -0.000000 0.000000 -0.000000 -0.000000 0.000000 -0.000000 -0.000000 0.000000 -0.000000 -0.000000 0.000000 -0.000000 -0.000000 0.000000 -0.000000 -0.000000 3.557368 -26.212553 4.772374 -62.440264 -21.827225 -66.761718 -0.000059 -109.308722 -0.000075 0.684141 -5.143289 14.587544 -15.245203 10.163114 26.456297 3.939033 7.948720 0.746818 0.000001 0.000002 -0.000000 -0.000005 -0.000001 -0.000007 0.000004 0.000019 -0.000074 -0.000001 -0.000003 -0.000000 -0.000007 -0.001924 0.015965 -0.000002 0.001940 -0.016050 -0.000003 0.000001 -0.000001 -0.000003 0.000004 -0.000013 -0.000000 0.000015 -0.000054 0.000001 -0.000005 0.000001 -0.018095 4.054251 0.511062 -0.018092 -4.054237 -0.511133 -0.000003 -0.000002 0.000000 0.000000 -0.000003 0.000003 1.196369 13.156129 10.917913 -58.738800 43.556181 51.453212 0.000060 106.272682 -0.000067 3.405174 -3.961065 -38.612077 -6.948223 -5.049342 -29.743005 4.637186 -8.634128 -0.225396 -0.000001 -0.000001 0.000001 -0.000007 -0.000005 0.000007 -0.000001 -0.000004 0.000090 -0.000001 0.000001 0.000002 -0.000010 -0.000000 -0.000001 0.000011 -0.000009 0.000093 -0.000001 0.000001 -0.000001 -0.000006 -0.000003 0.000007 0.000003 -0.000008 0.000072 0.000001 -0.000002 0.000001 -0.000010 0.000000 0.000008 0.000009 -0.000007 0.000071 0.000001 -0.000000 0.000001 -0.000001 -0.000003 -0.000002 0.000002 0.000000 -0.000000 0.000002 0.000000 -0.000000 0.000002 0.000000 -0.000000 0.000002 0.000000 -0.000000 0.000002 0.000000 -0.000000 0.000002 0.000000 -0.000000 -0.000002 -0.000000 0.000000 -0.000002 -0.000000 0.000000 0.000001 0.000000 -0.000000 -0.000001 0.000000 0.000000 
0.257159 72.269943 3.069153 11.790349 2.969832 -1.282307 -0.000001 -0.000000 0.000000 -50.782463 2.218726 4.291684 76.968008 7.656628 -0.643949 -36.979682 5.953922 -5.515168 0.000000 -0.000001 0.000000 0.000002 -0.000001 0.000000 -0.000001 -0.000001 -0.000001 -47.214369 -15.546790 -4.673494 75.460353 -8.372426 -4.628288 -40.660512 -10.600481 4.608248 0.000000 -0.000001 -0.000000 -0.000001 0.000001 -0.000001 -0.000002 -0.000000 -0.000001 9.882192 1.439484 1.174571 7.609031 0.766257 0.060673 7.600267 0.854941 0.041497 -11.217679 -1.900473 7.402071 -27.452695 2.051494 -5.990265 0.000000 -0.000000 0.000000 0.000000 -0.000000 0.000000 0.000000 -0.000000 0.000000 0.000000 -0.000000 0.000000 0.000000 -0.000000 0.000000 0.000000 -0.000000 0.000000 0.000000 -0.000000 0.000000 0.000000 -0.000000 0.000000 0.000000 -0.000000 0.000000 0.000000 -0.000000 0.000000 0.000000 -0.000000 0.000000 0.000000 -0.000000 0.000000 0.000000 -0.000000 0.000000 0.000000 -0.000000 0.000000 0.000000 -0.000000 0.000000 0.000000 -0.000000 0.000000 0.000000 -0.000000 0.000000 0.000000 -0.000000 0.000000 0.000000 -0.000000 0.000000 3.557364 -26.212553 4.772374 -62.433516 -21.799058 -66.740319 0.000164 -109.303019 0.000192 0.645387 -5.153773 14.610234 -15.245203 10.163111 26.456297 3.939033 7.948715 0.746819 0.000001 -0.000000 -0.000000 -0.000008 0.000002 -0.000003 0.000002 0.000024 -0.000073 -0.000000 0.000001 -0.000001 -0.000009 -0.001923 0.015971 -0.000003 0.001944 -0.016051 0.000000 0.000000 -0.000001 -0.000003 0.000001 -0.000005 0.000000 0.000015 -0.000056 0.000002 -0.000002 -0.000000 -0.018101 4.054253 0.511069 -0.018089 -4.054242 -0.511137 -0.000000 -0.000001 0.000001 0.000000 0.000000 0.000002 1.196230 13.178830 10.886484 -58.723344 43.560344 51.421048 0.000282 106.244692 -0.000299 3.384681 -3.970394 -38.621257 -6.948225 -5.049337 -29.743001 4.637189 -8.634139 -0.225398 -0.000000 -0.000000 0.000002 -0.000008 0.000002 0.000008 0.000002 -0.000006 0.000090 -0.000001 -0.000002 0.000001 -0.000012 0.000006 0.000000 0.000013 -0.000004 0.000092 -0.000001 0.000001 -0.000001 -0.000004 0.000002 0.000007 0.000009 -0.000003 0.000071 0.000002 -0.000000 -0.000001 -0.000012 0.000007 0.000010 0.000010 -0.000009 0.000069 -0.000003 -0.000003 -0.000000 -0.000000 -0.000001 0.000001 -0.000000 -0.000000 0.000000 -0.000000 -0.000000 0.000000 -0.000000 -0.000000 0.000000 -0.000000 -0.000000 0.000000 -0.000000 -0.000000 0.000000 -0.000000 -0.000000 0.000000 -0.000004 -0.000000 -0.000000 -0.000004 -0.000000 -0.000000 0.000002 0.000000 -0.000000 -0.000001 -0.000000 0.000000 
0.254985 72.267654 3.067030 11.784218 2.964634 -1.278445 -0.000000 0.000000 -0.000000 -50.779045 2.220220 4.290035 76.973213 7.659646 -0.641319 -36.982729 5.958986 -5.519024 0.000000 0.000002 -0.000000 -0.000001 0.000000 -0.000000 -0.000003 -0.000000 -0.000000 -47.216367 -15.554581 -4.674550 75.468119 -8.370280 -4.637382 -40.663593 -10.597003 4.606665 0.000000 -0.000001 0.000000 -0.000004 -0.000000 0.000000 0.000001 -0.000000 0.000001 9.884968 1.433199 1.179156 7.610894 0.761037 0.063448 7.602201 0.849653 0.044323 -11.220980 -1.896258 7.395013 -27.466498 2.071049 -6.020808 0.000000 0.000000 0.000000 0.000000 0.000000 0.000000 0.000000 0.000000 0.000000 0.000000 0.000000 0.000000 0.000000 0.000000 0.000000 0.000000 0.000000 0.000000 0.000000 0.000000 0.000000 0.000000 0.000000 0.000000 0.000000 0.000000 0.000000 0.000000 0.000000 0.000000 0.000000 0.000000 0.000000 0.000000 0.000000 0.000000 0.000000 0.000000 0.000000 0.000000 0.000000 0.000000 0.000000 0.000000 0.000000 0.000000 0.000000 0.000000 0.000000 0.000000 0.000000 0.000000 0.000000 0.000000 0.000000 0.000000 0.000000 3.557366 -26.212555 4.772374 -62.430470 -21.781203 -66.726365 -0.000039 -109.318414 -0.000019 0.640069 -5.168575 14.635403 -15.245209 10.163112 26.456295 3.939035 7.948718 0.746818 0.000000 -0.000004 -0.000002 -0.000010 0.000003 -0.000006 0.000004 0.000021 -0.000075 0.000000 -0.000002 0.000000 -0.000011 -0.001924 0.015969 -0.000001 0.001944 -0.016051 -0.000000 0.000001 0.000001 -0.000005 0.000001 -0.000008 0.000000 0.000015 -0.000058 0.000002 -0.000002 -0.000002 -0.018102 4.054253 0.511069 -0.018088 -4.054241 -0.511134 -0.000001 -0.000002 0.000001 0.000002 -0.000003 -0.000002 1.195822 13.196535 10.865739 -58.712723 43.570760 51.388554 -0.000035 106.243886 0.000046 3.384067 -3.974727 -38.619877 -6.948220 -5.049339 -29.743001 4.637185 -8.634130 -0.225397 0.000001 0.000002 0.000001 -0.000005 0.000002 0.000007 -0.000001 -0.000014 0.000090 -0.000002 -0.000003 0.000001 -0.000010 0.000007 -0.000001 0.000012 -0.000008 0.000095 0.000000 -0.000000 -0.000002 -0.000003 0.000001 0.000008 0.000005 -0.000008 0.000072 0.000001 0.000000 0.000001 -0.000010 0.000007 0.000009 0.000008 -0.000004 0.000071 -0.000002 -0.000000 -0.000000 0.000001 -0.000000 -0.000001 0.000001 -0.000000 -0.000000 0.000001 -0.000000 -0.000000 0.000001 -0.000000 -0.000000 0.000001 -0.000000 -0.000000 0.000001 -0.000000 -0.000000 0.000001 -0.000000 -0.000000 0.000001 0.000000 -0.000000 0.000001 0.000000 -0.000000 0.000000 0.000000 -0.000000 -0.000000 0.000000 -0.000000 
